<svg xmlns="http://www.w3.org/2000/svg" width="115" height="65" viewBox="0 0 115 65"><defs><style>.a{fill:#fff;}</style></defs><g transform="translate(-202.4 -183)"><g transform="translate(231.722 191.979)"><g transform="translate(0 29.083)"><path class="a" d="M581.191,337.866H567.347V320.407h13.844V323.9h-9.353v3.367H579.2v3.492h-7.358v3.617h9.353Z" transform="translate(-495.513 -320.156)"/><path class="a" d="M504.372,334.249q6.835.375,9.254.374a1.161,1.161,0,0,0,1.247-1.246v-2.246h-5.738a4.285,4.285,0,0,1-4.988-4.988V325.4a4.285,4.285,0,0,1,4.988-4.988h8.755V323.9h-7.756a1.322,1.322,0,0,0-1.5,1.5v.5a1.322,1.322,0,0,0,1.5,1.5h4.489a4.111,4.111,0,0,1,4.739,4.739v1.247a4.111,4.111,0,0,1-4.739,4.737q-1.271,0-2.693-.049l-2.295-.1q-2.544-.125-5.263-.348Z" transform="translate(-449.775 -320.156)"/><path class="a" d="M450.372,320.407h4.49v12.72a4.285,4.285,0,0,1-4.988,4.988h-5.738a4.285,4.285,0,0,1-4.988-4.988v-12.72h4.49v12.72a1.322,1.322,0,0,0,1.5,1.5h3.741a1.321,1.321,0,0,0,1.5-1.5Z" transform="translate(-402.733 -320.156)"/><path class="a" d="M387.654,332.471a4.285,4.285,0,0,1-4.988,4.988H376.43a4.286,4.286,0,0,1-4.99-4.988V324.49a4.286,4.286,0,0,1,4.99-4.99h6.236a4.285,4.285,0,0,1,4.988,4.99Zm-4.49-7.981a1.323,1.323,0,0,0-1.5-1.5h-4.24a1.324,1.324,0,0,0-1.5,1.5v7.981a1.322,1.322,0,0,0,1.5,1.5h4.24a1.322,1.322,0,0,0,1.5-1.5Z" transform="translate(-353.732 -319.5)"/><path class="a" d="M322.562,337.866h-4.489v-7.109h-6.236v7.109h-4.49V320.407h4.49v6.858h6.236v-6.858h4.489Z" transform="translate(-307.347 -320.156)"/></g><path class="a" d="M426,215.5H430.8l4.175,8.6,4.173-8.6h4.807l-6.7,13.027v4.679H432.7v-4.679Z" transform="translate(-393.216 -215.5)"/><path class="a" d="M375.988,233.206h-4.554V215.5h4.554v6.955h2.276l3.945-6.955h4.806l-4.958,8.727,4.933,8.979h-4.806L378.264,226h-2.276Z" transform="translate(-353.728 -215.5)"/><path class="a" d="M307.575,229.538q6.932.381,9.385.379a1.178,1.178,0,0,0,1.265-1.263v-2.278h-5.819a4.346,4.346,0,0,1-5.059-5.059v-.759a4.346,4.346,0,0,1,5.059-5.059h8.879v3.541h-7.866a1.341,1.341,0,0,0-1.517,1.518v.506a1.341,1.341,0,0,0,1.517,1.518h4.552a4.169,4.169,0,0,1,4.806,4.806v1.265a4.169,4.169,0,0,1-4.806,4.8q-1.289,0-2.731-.049l-2.327-.1q-2.58-.127-5.337-.353Z" transform="translate(-307.347 -215.5)"/></g><g transform="translate(202.4 183)"><path class="a" d="M220.359,339,202.4,356.959v3.592l17.959-17.959Z" transform="translate(-202.4 -295.55)"/><path class="a" d="M220.359,313,202.4,330.959v3.592l17.959-17.958Z" transform="translate(-202.4 -276.734)"/><path class="a" d="M220.359,249.507l-5.388-5.44,5.388-5.44V235L202.4,253.133v3.627l5.388,5.44-5.388,5.44v3.627l17.959-18.133Zm-10.775,10.88-5.388-5.44,1.8-1.813,5.388,5.44Zm3.592-3.627-5.388-5.44,1.8-1.813,5.388,5.44Zm3.592-3.627-5.388-5.44,1.8-1.813,5.388,5.44Z" transform="translate(-202.4 -220.633)"/><path class="a" d="M220.359,209,202.4,226.959v3.592l17.959-17.959Z" transform="translate(-202.4 -201.817)"/><path class="a" d="M220.359,183,202.4,200.959v3.592l17.959-17.959Z" transform="translate(-202.4 -183)"/></g></g></svg>